<svg width="150" height="150" viewBox="0 0 150 150" fill="none" xmlns="http://www.w3.org/2000/svg">
<path d="M49.0006 77.1297C48.604 75.4442 48.5545 74.7005 48.9511 72.7671C66.3025 72.7671 83.7034 72.7671 101.104 72.7671C101.451 74.2544 101.402 75.5929 101.154 77.1297C83.7034 77.1297 66.3025 77.1297 49.0006 77.1297Z" fill="white"/>
<path d="M56.7842 79.1128C58.2715 78.7658 59.61 78.7658 61.4443 79.1128C63.8735 85.0619 68.1866 88.9783 74.9288 88.9783C81.6711 88.9783 86.0833 85.3097 88.5621 79.1128C90.198 78.8154 91.7349 78.7658 93.2717 79.1128C92.6272 85.8551 85.0918 94.2333 74.4826 94.035C65.9557 93.8367 56.6851 86.0534 56.7842 79.1128Z" fill="white"/>
<path d="M61.3947 70.8833C59.8083 71.0816 58.321 71.1807 56.7842 70.7841C56.7842 63.794 65.559 56.3577 74.4826 56.0107C85.0917 55.6637 92.4289 63.8436 93.2717 70.5363C91.8836 71.0816 90.4459 71.1312 88.6612 70.685C84.1002 57.8945 66.3027 57.7458 61.3947 70.8833Z" fill="white"/>
<path d="M124.851 73.8083C124.95 74.4033 125 74.7999 125 75.1469C125 75.4443 124.901 75.7418 124.802 76.188C118.753 76.188 112.755 76.188 106.806 76.188C106.31 75.3948 106.31 74.7007 106.756 73.8083C112.705 73.8083 118.704 73.8083 124.851 73.8083Z" fill="#DF041A"/>
<path d="M25.3535 76.1382C24.8577 75.345 24.9073 74.7005 25.3535 73.7585C31.2529 73.7585 37.2516 73.7585 43.2006 73.7585C43.6964 74.5518 43.6468 75.2458 43.2502 76.1382C37.3011 76.1382 31.3025 76.1382 25.3535 76.1382Z" fill="#DF041A"/>
</svg>
