<svg width="150" height="150" viewBox="0 0 150 150" fill="none" xmlns="http://www.w3.org/2000/svg">
<path fill-rule="evenodd" clip-rule="evenodd" d="M92.4439 81.3541C90.3772 85.668 88.3416 89.9168 86.1819 94.4237C87.0707 94.7623 87.7426 95.1451 88.4595 95.2698C91.1355 95.7354 93.0584 94.6735 94.3645 92.1374C94.8056 91.2806 95.2843 90.4429 95.9021 89.3102C96.5571 90.1819 96.9724 90.715 97.367 91.2629C97.7748 91.8304 98.1351 92.4337 98.5641 92.9849C100.591 95.587 103.194 95.9108 105.692 93.7641C105.452 93.2654 105.21 92.7161 104.929 92.1877C103.544 89.5856 102.175 86.9751 100.748 84.3958C99.8551 82.7812 99.7738 81.2388 100.591 79.5405C102.077 76.4504 103.015 73.1808 103.49 69.7828C103.895 66.8737 104.557 63.9786 104.689 61.0588C104.833 57.912 105.571 54.768 104.913 51.5928C104.3 48.6326 102.975 47.4338 99.9599 47.3906C96.8309 47.3459 93.7011 47.3622 90.5722 47.3948C89.9079 47.4018 89.2459 47.5943 88.4788 47.7176C88.4308 48.7 88.3397 49.4647 88.3655 50.2253C88.46 52.9948 89.7773 54.2949 92.5985 54.4154C93.6137 54.4587 94.636 54.3815 95.648 54.4522C96.55 54.5154 97.4426 54.7075 98.5969 54.882C98.9282 61.2202 98.5147 67.2487 96.6468 73.1464C95.0302 67.6924 94.4589 62.1115 94.326 56.3151C93.0796 56.2593 92.1597 56.2328 91.2417 56.1728C89.6594 56.07 88.6347 56.8719 88.3068 58.292C88.0165 59.5475 87.8586 60.9044 88.0047 62.1761C88.7498 68.6544 90.2241 74.981 92.4439 81.3541ZM84.8223 96.9811V53.9275C85.5237 53.5791 86.1363 53.2748 86.6935 52.9981C87.3926 48.8898 85.5692 46.5761 81.4768 46.5026C76.6251 46.4156 71.7711 46.4645 66.918 46.4961C66.1809 46.5012 65.4447 46.7343 64.6018 46.8808C64.6018 48.1772 64.2415 49.4266 64.684 50.256C65.4014 51.6007 66.646 52.6701 67.8172 54.0289C66.201 55.5955 66.2833 57.7822 66.2898 59.9741C66.311 67.3366 66.2978 74.6991 66.2978 82.0616V84.794C65.6227 85.3089 65.0834 85.7201 64.6164 86.0764C64.1555 90.0931 65.7115 91.97 69.5564 92.076C71.8246 92.1384 74.0961 92.0746 76.3658 92.103C77.1174 92.1128 77.8682 92.2337 78.712 92.3128V96.7262C76.3061 97.3035 60.1222 97.2514 58.2496 96.7118C57.6572 94.5716 57.706 87.2575 58.3999 85.3605H63.1478C63.6707 83.8753 63.7482 82.5766 63.1022 81.3555C62.0874 79.4381 60.1345 79.0149 58.0495 78.6599C57.769 76.0569 57.7178 73.559 58.0974 70.9164C59.901 70.7053 61.5523 70.5118 63.0275 70.3392C63.7181 68.9498 63.5044 67.9087 62.9693 66.917C61.9413 65.014 60.2759 63.9884 58.0964 63.8237C57.8244 61.8798 57.5782 60.1508 58.2886 58.339C59.9489 58.2074 61.5486 58.0804 63.0679 57.9599C63.86 54.6731 62.5568 53.033 58.1293 51.5319C57.5768 49.8731 58.1411 47.873 56.6499 46.3589C55.0281 44.7117 53.226 44.849 51.0296 45.3485C50.8877 47.4692 50.7473 49.5754 50.6096 51.638C47.9411 52.419 45.3586 51.4551 43.0467 52.3371C42.5304 55.8541 44.2109 57.9702 47.4868 58.152C48.4758 58.2074 49.4633 58.2869 50.5904 58.3646V63.9302C47.9322 64.0456 45.4845 64.1521 43.1176 64.2544C42.5299 67.5059 43.8754 69.7075 46.652 70.3238C47.9205 70.6062 49.2232 70.7374 50.7388 70.9727V95.755C49.4375 95.0409 49.4032 93.8753 49.3778 92.6928C49.2547 86.9658 49.1297 81.2392 48.985 75.5127C48.9667 74.7735 48.8291 74.0367 48.7544 73.3674C45.2181 72.8306 42.7775 74.8926 42.7568 78.3301C42.7103 86.0025 42.7352 93.6748 42.7517 101.347C42.7531 102.015 42.9086 102.682 42.9781 103.237C45.454 104.486 46.9902 102.709 48.3748 102.076C51.2669 102.66 53.7813 103.586 56.3032 103.608C72.0351 103.744 87.7689 103.683 103.502 103.663C104.309 103.662 105.116 103.437 105.859 103.326C106.135 99.0408 104.47 97.1611 100.569 97.1309C96.2639 97.0974 91.9586 97.1286 87.6533 97.1156C86.8105 97.1132 85.9681 97.0379 84.8223 96.9811ZM124.981 83.8274C124.981 94.2925 124.981 104.758 124.981 115.223C124.981 115.843 124.991 116.464 124.975 117.083C124.867 121.188 122.714 123.527 118.562 124.011C117.788 124.1 116.999 124.071 116.217 124.071C95.3121 124.074 74.4076 124.106 53.5032 124.048C49.1128 124.036 44.7112 123.611 40.6587 121.754C32.198 117.877 26.8736 111.506 25.4567 102.246C25.1185 100.038 25.0287 97.7752 25.0236 95.5373C24.9878 80.6536 25.0015 65.7699 25.0085 50.8863C25.0113 45.7239 26.2554 40.8672 29.1973 36.5905C34.1382 29.4071 41.0397 25.2523 49.8584 25.1453C66.6107 24.943 83.3687 24.9648 100.122 25.1314C111.823 25.2477 121.844 33.8843 124.182 45.2951C124.746 48.0479 125.013 50.79 125 53.5949C124.953 63.6721 124.981 73.7497 124.981 83.8274Z" fill="#FFFFFE"/>
<path fill-rule="evenodd" clip-rule="evenodd" d="M78.8 72.7064H73.0327C72.5374 70.2476 72.707 67.9431 72.887 65.3669H78.8179C79.2353 67.7795 79.2348 70.197 78.8 72.7064Z" fill="#FFFFFE"/>
<path fill-rule="evenodd" clip-rule="evenodd" d="M72.0174 79.1284H78.2111V85.5504H72.2218C71.5477 83.5106 71.8111 81.5098 72.0174 79.1284Z" fill="#FFFFFE"/>
<path fill-rule="evenodd" clip-rule="evenodd" d="M72.7065 58.0276H79.1286V53.4404H72.7065V58.0276Z" fill="#FFFFFE"/>
</svg>
