<?xml version="1.0" encoding="UTF-8"?>
<svg width="150px" height="150px" viewBox="0 0 150 150" version="1.1" xmlns="http://www.w3.org/2000/svg" xmlns:xlink="http://www.w3.org/1999/xlink">
    <title>92_F7F7F7_2C2C2C</title>
    <g id="92_F7F7F7_2C2C2C" stroke="none" stroke-width="1" fill="none" fill-rule="evenodd">
        <g id="shutterstock_541742311" transform="translate(49.000000, 26.000000)" fill="#B8E986">
            <path d="M15.6444699,47.8878744 L15.6444699,52.2379339 C15.6444699,52.2379339 16.7745301,53.4226574 19.0537561,53.2038276 C21.9733732,52.9236123 22.3162123,52.3849408 22.3162123,52.3849408 L22.3162123,39.0138591 C22.3162123,39.0138591 22.2182078,39.048886 22.0492648,39.0991266 L22.0487341,39.0667532 L22.3162123,39.0138591 C22.3162123,39.0138591 25.7131153,34.2006659 28.7404666,29.9652399 C31.7678179,25.729637 35.9882217,9.51589122 35.9882217,9.51589122 C35.9882217,9.51589122 27.2902109,23.6802087 23.2357573,28.4622669 C23.296789,25.5870527 23.1204161,22.5076917 22.4632192,19.6759957 C20.4235207,10.8872479 18.366915,0.0307643203 18.366915,0.0307643203 C18.366915,0.0307643203 16.1134414,18.1408263 16.8971243,22.2525967 C17.6802766,26.3615366 19.8722891,39.4771696 19.8751196,39.4945061 C19.4968997,39.5263488 19.0873678,39.5417394 18.6530695,39.531479 C18.4469768,37.7842021 17.9035289,33.3074796 17.2889658,29.3473156 C16.5052829,24.2977792 7.08113838,11.2183987 7.08113838,11.2183987 C7.08113838,11.2183987 11.0196791,19.8992481 11.8958826,26.3981557 C12.7719093,32.8972402 15.523291,39.5190957 15.523291,39.5190957 L15.6444699,39.5481079 L15.6444699,39.6613262 C15.6037821,39.614093 15.5652171,39.5657983 15.523291,39.5190957 C12.1048058,35.7101843 2.6133969,18.6257191 2.6133969,18.6257191 C2.6133969,18.6257191 7.80675591,36.8770405 10.4734008,40.6079374 C12.4899249,43.429196 14.6902519,46.5380999 15.6444699,47.8878744 Z" id="Fill-4"></path>
            <path d="M20.1123473,53.7218013 C17.7945563,54.1175347 15.6846271,53.2038276 15.6846271,53.2038276 L15.7109857,79.2610204 C15.8592309,79.283841 16.3021975,79.3517719 17.4805524,79.5325674 C19.8446921,79.8955736 22.4632192,79.4722433 22.4632192,79.4722433 L22.3162123,53.2307169 C22.3162123,53.2307169 21.630534,53.4622838 20.1123473,53.7218013" id="Fill-5"></path>
            <path d="M17.0266178,80.0572226 C16.2919371,79.9737054 15.6444699,80.0572226 15.6444699,80.0572226 L15.6444699,97.0861943 C15.6444699,97.0861943 16.8061959,97.1279027 18.5693941,97.2532288 C20.3325923,97.3783539 22.3162123,96.7940348 22.3162123,96.7940348 L22.3162123,80.0155143 L21.5132469,80.0712929 C20.5158644,80.1067701 17.677623,80.1311921 17.0266178,80.0572226" id="Fill-6"></path>
            <path d="M28.7404666,37.2411081 C24.5191929,41.0717786 22.3588461,49.0833889 22.3588461,49.0833889 L22.3721139,51.4342609 C22.3721139,51.4342609 27.4763135,47.1241815 29.521496,43.9894497 C31.5666785,40.8550717 36.6841459,26.5936341 36.6841459,26.5936341 C36.6841459,26.5936341 32.9617403,33.4104375 28.7404666,37.2411081" id="Fill-7"></path>
            <path d="M15.6444699,63.1956968 C15.6444699,63.1956968 10.0401639,54.008739 6.12192601,49.002544 C2.20368816,43.996349 0.636499156,39.4952138 0.636499156,39.4952138 C0.636499156,39.4952138 4.17527879,52.9106983 7.00980519,56.5839247 C9.84433158,60.2569742 15.6444699,65.9139975 15.6444699,65.9139975 L15.6444699,63.1956968" id="Fill-8"></path>
            <path d="M25.6113957,51.7797536 L25.6113957,62.6402195 C25.6113957,62.6402195 26.5396089,63.6131893 28.4116028,63.4334552 C30.8093542,63.2034805 31.0909848,62.7608677 31.0909848,62.7608677 L31.0909848,51.7797536 L29.4013785,52.1434674 C28.3891361,52.2621697 27.0271552,52.2596931 25.6113957,51.7797536" id="Fill-9"></path>
            <path d="M26.7465861,85.5622832 C26.1433449,85.4996079 25.6113957,85.5622832 25.6113957,85.5622832 L25.6113957,98.3506118 C25.6113957,98.3506118 26.5656137,98.3819494 28.0137466,98.4759623 C29.4618795,98.5700671 31.0909848,98.1311565 31.0909848,98.1311565 L31.0909848,85.5308537 C31.0909848,85.5308537 31.0909848,85.5308537 30.668539,85.5622832 C30.2460932,85.5936208 27.3500043,85.6249585 26.7465861,85.5622832" id="Fill-10"></path>
            <path d="M43.3298835,61.428076 C41.350686,62.6255365 38.8789889,64.3561844 36.7388091,65.913113 C36.8327449,65.7823812 36.9257962,65.6520033 37.0084102,65.5253403 C38.6881099,62.9510391 42.8908087,51.2386055 42.8908087,51.2386055 C42.8908087,51.2386055 39.8337376,56.8368968 36.3669578,59.9831274 C32.900001,63.129181 31.1260117,69.7089336 31.1260117,69.7089336 L31.1360952,71.5206033 L31.0909848,63.4557451 C31.0909848,63.4557451 30.5277237,63.6459164 29.2807302,63.8589084 C28.3496866,64.0179447 27.4610998,63.9192325 26.794527,63.7771789 L26.7943501,63.7771789 C26.0982344,63.6289337 25.6444767,63.4334552 25.6444767,63.4334552 L25.6660589,84.8336607 C25.6660589,84.8336607 25.6322703,84.8283536 25.6181181,84.8262308 C25.6572138,84.8322455 25.9367214,84.8752331 27.1194989,85.0567362 C29.0610159,85.3548187 31.2114561,85.0070263 31.2114561,85.0070263 L31.1366259,71.6196694 L31.1368028,71.6396595 C31.1368028,71.6396595 31.1536086,71.6253303 31.1852744,71.598264 C31.9555127,71.260555 37.4257258,68.8422828 40.4394556,66.9909866 C43.6859904,64.9962216 50.3117379,55.7259422 50.3117379,55.7259422 C50.3117379,55.7259422 47.7970532,58.7255197 43.3298835,61.428076" id="Fill-11"></path>
        </g>
        <g id="Future" transform="translate(0.000000, 99.000000)">
            <rect id="Rectangle" fill-opacity="0.7" fill="#000000" x="0" y="0" width="150" height="51"></rect>
            <text font-family="OpenSans-Bold, Open Sans" font-size="24" font-weight="bold" letter-spacing="5" fill="#FFFFFF">
                <tspan x="14.1816406" y="35">FUTURE</tspan>
            </text>
        </g>
    </g>
</svg>